<?xml version="1.0" encoding="utf-8"?>
<!DOCTYPE svg PUBLIC "-//W3C//DTD SVG 1.1//EN" "http://www.w3.org/Graphics/SVG/1.1/DTD/svg11.dtd">
<svg style="width:308px;height:308px;" version="1.1"xmlns="http://www.w3.org/2000/svg" xmlns:xlink="http://www.w3.org/1999/xlink" x="0px" y="0px" width="1024px" height="1024px" viewBox="0 0 1024 1024" enable-background="new 0 0 1024 1024" xml:space="preserve">
  <path class="svgpath" data-index="path_0" d="M832 480 268.8 480l256-256c12.8-12.8 12.8-32 0-44.8s-32-12.8-44.8 0L166.4 486.4c-12.8 12.8-12.8 32 0 44.8l307.2 307.2c6.4 6.4 12.8 6.4 25.6 6.4s19.2 0 25.6-6.4c12.8-12.8 12.8-32 0-44.8l-256-256L832 537.6c19.2 0 32-12.8 32-32S851.2 480 832 480z" />

</svg>
